# xmcd CD database file
#
# Track frame offsets:
#	150
#	30638
#	48331
#	65438
#	90316
#	120848
#	160444
#	183310
#	213421
#	244727
#
# Disc length: 3510 seconds
#
# Revision: 0
# Processed by: cddbd v1.5.2PL0 Copyright (c) Steve Scherf et al.
# Submitted via: CDex 1.51
#
DISCID=7b0db40a
DTITLE=Various Artist - New York is Our Home
DYEAR=2008
DGENRE=Jazz
TTITLE0=The Jazz Messengers - Avilla andTequila
TTITLE1=Kenny Dorham - Minor's Holiday
TTITLE2=Kenny Burrell - Caravan
TTITLE3=Sonny Clark - News for Lulu
TTITLE4=Lee Morgan - City Lights
TTITLE5=Horace Silver - The Outlaw
TTITLE6=Sonny Rollins - Misterioso
TTITLE7=Clifford Jordan and John Gilmore - Blue Lights
TTITLE8=Paul Chambers - We Six
TTITLE9=Hank Mobley - Don't Walk
EXTD=YEAR: 2008
EXTT0=
EXTT1=
EXTT2=
EXTT3=
EXTT4=
EXTT5=
EXTT6=
EXTT7=
EXTT8=
EXTT9=
PLAYORDER=
